  0
SECTION
  2
HEADER
  9
$ACADVER
  1
AC1024
  9
$ACADMAINTVER
 70
6
  9
$DWGCODEPAGE
  3
ANSI_1252
  9
$LASTSAVEDBY
  1
ezdxf
  9
$INSBASE
 10
0.0
 20
0.0
 30
0.0
  9
$EXTMIN
 10
1e+20
 20
1e+20
 30
1e+20
  9
$EXTMAX
 10
-1e+20
 20
-1e+20
 30
-1e+20
  9
$LIMMIN
 10
0.0
 20
0.0
  9
$LIMMAX
 10
420.0
 20
297.0
  9
$ORTHOMODE
 70
0
  9
$REGENMODE
 70
1
  9
$FILLMODE
 70
1
  9
$QTEXTMODE
 70
0
  9
$MIRRTEXT
 70
1
  9
$LTSCALE
 40
1.0
  9
$ATTMODE
 70
1
  9
$TEXTSIZE
 40
2.5
  9
$TRACEWID
 40
1.0
  9
$TEXTSTYLE
  7
Standard
  9
$CLAYER
  8
0
  9
$CELTYPE
  6
ByLayer
  9
$CECOLOR
 62
256
  9
$CELTSCALE
 40
1.0
  9
$DISPSILH
 70
0
  9
$DIMSCALE
 40
1.0
  9
$DIMASZ
 40
2.5
  9
$DIMEXO
 40
0.625
  9
$DIMDLI
 40
3.75
  9
$DIMRND
 40
0.0
  9
$DIMDLE
 40
0.0
  9
$DIMEXE
 40
1.25
  9
$DIMTP
 40
0.0
  9
$DIMTM
 40
0.0
  9
$DIMTXT
 40
2.5
  9
$DIMCEN
 40
2.5
  9
$DIMTSZ
 40
0.0
  9
$DIMTOL
 70
0
  9
$DIMLIM
 70
0
  9
$DIMTIH
 70
0
  9
$DIMTOH
 70
0
  9
$DIMSE1
 70
0
  9
$DIMSE2
 70
0
  9
$DIMTAD
 70
1
  9
$DIMZIN
 70
8
  9
$DIMBLK
  1

  9
$DIMASO
 70
1
  9
$DIMSHO
 70
1
  9
$DIMPOST
  1

  9
$DIMAPOST
  1

  9
$DIMALT
 70
0
  9
$DIMALTD
 70
3
  9
$DIMALTF
 40
0.03937007874
  9
$DIMLFAC
 40
1.0
  9
$DIMTOFL
 70
1
  9
$DIMTVP
 40
0.0
  9
$DIMTIX
 70
0
  9
$DIMSOXD
 70
0
  9
$DIMSAH
 70
0
  9
$DIMBLK1
  1

  9
$DIMBLK2
  1

  9
$DIMSTYLE
  2
ISO-25
  9
$DIMCLRD
 70
0
  9
$DIMCLRE
 70
0
  9
$DIMCLRT
 70
0
  9
$DIMTFAC
 40
1.0
  9
$DIMGAP
 40
0.625
  9
$DIMJUST
 70
0
  9
$DIMSD1
 70
0
  9
$DIMSD2
 70
0
  9
$DIMTOLJ
 70
0
  9
$DIMTZIN
 70
8
  9
$DIMALTZ
 70
0
  9
$DIMALTTZ
 70
0
  9
$DIMUPT
 70
0
  9
$DIMDEC
 70
2
  9
$DIMTDEC
 70
2
  9
$DIMALTU
 70
2
  9
$DIMALTTD
 70
3
  9
$DIMTXSTY
  7
Standard
  9
$DIMAUNIT
 70
0
  9
$DIMADEC
 70
0
  9
$DIMALTRND
 40
0.0
  9
$DIMAZIN
 70
0
  9
$DIMDSEP
 70
44
  9
$DIMATFIT
 70
3
  9
$DIMFRAC
 70
0
  9
$DIMLDRBLK
  1

  9
$DIMLUNIT
 70
2
  9
$DIMLWD
 70
-2
  9
$DIMLWE
 70
-2
  9
$DIMTMOVE
 70
0
  9
$DIMFXL
 40
1.0
  9
$DIMFXLON
 70
0
  9
$DIMJOGANG
 40
0.785398163397
  9
$DIMTFILL
 70
0
  9
$DIMTFILLCLR
 70
0
  9
$DIMARCSYM
 70
0
  9
$DIMLTYPE
  6

  9
$DIMLTEX1
  6

  9
$DIMLTEX2
  6

  9
$DIMTXTDIRECTION
 70
0
  9
$LUNITS
 70
2
  9
$LUPREC
 70
4
  9
$SKETCHINC
 40
1.0
  9
$FILLETRAD
 40
10.0
  9
$AUNITS
 70
0
  9
$AUPREC
 70
2
  9
$MENU
  1
.
  9
$ELEVATION
 40
0.0
  9
$PELEVATION
 40
0.0
  9
$THICKNESS
 40
0.0
  9
$LIMCHECK
 70
0
  9
$CHAMFERA
 40
0.0
  9
$CHAMFERB
 40
0.0
  9
$CHAMFERC
 40
0.0
  9
$CHAMFERD
 40
0.0
  9
$SKPOLY
 70
0
  9
$TDCREATE
 40
2461303.424166667
  9
$TDUCREATE
 40
2458532.153996898
  9
$TDUPDATE
 40
2461303.424166667
  9
$TDUUPDATE
 40
2458532.1544311
  9
$TDINDWG
 40
0.0
  9
$TDUSRTIMER
 40
0.0
  9
$USRTIMER
 70
1
  9
$ANGBASE
 50
0.0
  9
$ANGDIR
 70
0
  9
$PDMODE
 70
0
  9
$PDSIZE
 40
0.0
  9
$PLINEWID
 40
0.0
  9
$SPLFRAME
 70
0
  9
$SPLINETYPE
 70
6
  9
$SPLINESEGS
 70
8
  9
$HANDSEED
  5
14C
  9
$SURFTAB1
 70
6
  9
$SURFTAB2
 70
6
  9
$SURFTYPE
 70
6
  9
$SURFU
 70
6
  9
$SURFV
 70
6
  9
$UCSBASE
  2

  9
$UCSNAME
  2

  9
$UCSORG
 10
0.0
 20
0.0
 30
0.0
  9
$UCSXDIR
 10
1.0
 20
0.0
 30
0.0
  9
$UCSYDIR
 10
0.0
 20
1.0
 30
0.0
  9
$UCSORTHOREF
  2

  9
$UCSORTHOVIEW
 70
0
  9
$UCSORGTOP
 10
0.0
 20
0.0
 30
0.0
  9
$UCSORGBOTTOM
 10
0.0
 20
0.0
 30
0.0
  9
$UCSORGLEFT
 10
0.0
 20
0.0
 30
0.0
  9
$UCSORGRIGHT
 10
0.0
 20
0.0
 30
0.0
  9
$UCSORGFRONT
 10
0.0
 20
0.0
 30
0.0
  9
$UCSORGBACK
 10
0.0
 20
0.0
 30
0.0
  9
$PUCSBASE
  2

  9
$PUCSNAME
  2

  9
$PUCSORG
 10
0.0
 20
0.0
 30
0.0
  9
$PUCSXDIR
 10
1.0
 20
0.0
 30
0.0
  9
$PUCSYDIR
 10
0.0
 20
1.0
 30
0.0
  9
$PUCSORTHOREF
  2

  9
$PUCSORTHOVIEW
 70
0
  9
$PUCSORGTOP
 10
0.0
 20
0.0
 30
0.0
  9
$PUCSORGBOTTOM
 10
0.0
 20
0.0
 30
0.0
  9
$PUCSORGLEFT
 10
0.0
 20
0.0
 30
0.0
  9
$PUCSORGRIGHT
 10
0.0
 20
0.0
 30
0.0
  9
$PUCSORGFRONT
 10
0.0
 20
0.0
 30
0.0
  9
$PUCSORGBACK
 10
0.0
 20
0.0
 30
0.0
  9
$USERI1
 70
0
  9
$USERI2
 70
0
  9
$USERI3
 70
0
  9
$USERI4
 70
0
  9
$USERI5
 70
0
  9
$USERR1
 40
0.0
  9
$USERR2
 40
0.0
  9
$USERR3
 40
0.0
  9
$USERR4
 40
0.0
  9
$USERR5
 40
0.0
  9
$WORLDVIEW
 70
1
  9
$SHADEDGE
 70
3
  9
$SHADEDIF
 70
70
  9
$TILEMODE
 70
1
  9
$MAXACTVP
 70
64
  9
$PINSBASE
 10
0.0
 20
0.0
 30
0.0
  9
$PLIMCHECK
 70
0
  9
$PEXTMIN
 10
1e+20
 20
1e+20
 30
1e+20
  9
$PEXTMAX
 10
-1e+20
 20
-1e+20
 30
-1e+20
  9
$PLIMMIN
 10
0.0
 20
0.0
  9
$PLIMMAX
 10
420.0
 20
297.0
  9
$UNITMODE
 70
0
  9
$VISRETAIN
 70
1
  9
$PLINEGEN
 70
0
  9
$PSLTSCALE
 70
1
  9
$TREEDEPTH
 70
3020
  9
$CMLSTYLE
  2
Standard
  9
$CMLJUST
 70
0
  9
$CMLSCALE
 40
20.0
  9
$PROXYGRAPHICS
 70
1
  9
$MEASUREMENT
 70
1
  9
$CELWEIGHT
370
-1
  9
$ENDCAPS
280
0
  9
$JOINSTYLE
280
0
  9
$LWDISPLAY
290
0
  9
$INSUNITS
 70
4
  9
$HYPERLINKBASE
  1

  9
$STYLESHEET
  1

  9
$XEDIT
290
1
  9
$CEPSNTYPE
380
0
  9
$PSTYLEMODE
290
1
  9
$FINGERPRINTGUID
  2
{AB08AF6C-9031-4D33-A4F6-8BAFE23E94F0}
  9
$VERSIONGUID
  2
{32B6E5B8-488C-46BA-8DD6-4A83852BFB69}
  9
$EXTNAMES
290
1
  9
$PSVPSCALE
 40
0.0
  9
$OLESTARTUP
290
0
  9
$SORTENTS
280
127
  9
$INDEXCTL
280
0
  9
$HIDETEXT
280
1
  9
$XCLIPFRAME
280
1
  9
$HALOGAP
280
0
  9
$OBSCOLOR
 70
257
  9
$OBSLTYPE
280
0
  9
$INTERSECTIONDISPLAY
280
0
  9
$INTERSECTIONCOLOR
 70
257
  9
$DIMASSOC
280
2
  9
$PROJECTNAME
  1

  9
$CAMERADISPLAY
290
0
  9
$LENSLENGTH
 40
50.0
  9
$CAMERAHEIGHT
 40
0.0
  9
$STEPSPERSEC
 40
24.0
  9
$STEPSIZE
 40
100.0
  9
$3DDWFPREC
 40
2.0
  9
$PSOLWIDTH
 40
0.005
  9
$PSOLHEIGHT
 40
0.08
  9
$LOFTANG1
 40
1.570796326795
  9
$LOFTANG2
 40
1.570796326795
  9
$LOFTMAG1
 40
0.0
  9
$LOFTMAG2
 40
0.0
  9
$LOFTPARAM
 70
7
  9
$LOFTNORMALS
280
1
  9
$LATITUDE
 40
37.795
  9
$LONGITUDE
 40
-122.394
  9
$NORTHDIRECTION
 40
0.0
  9
$TIMEZONE
 70
-8000
  9
$LIGHTGLYPHDISPLAY
280
1
  9
$TILEMODELIGHTSYNCH
280
1
  9
$CMATERIAL
347
20
  9
$SOLIDHIST
280
0
  9
$SHOWHIST
280
1
  9
$DWFFRAME
280
2
  9
$DGNFRAME
280
2
  9
$REALWORLDSCALE
290
1
  9
$INTERFERECOLOR
 62
256
  9
$CSHADOW
280
0
  9
$SHADOWPLANELOCATION
 40
0.0
  0
ENDSEC
  0
SECTION
  2
CLASSES
  0
CLASS
  1
ACDBDICTIONARYWDFLT
  2
AcDbDictionaryWithDefault
  3
ObjectDBX Classes
 90
0
 91
0
280
0
281
0
  0
CLASS
  1
SUN
  2
AcDbSun
  3
SCENEOE
 90
1153
 91
0
280
0
281
0
  0
CLASS
  1
VISUALSTYLE
  2
AcDbVisualStyle
  3
ObjectDBX Classes
 90
4095
 91
0
280
0
281
0
  0
CLASS
  1
MATERIAL
  2
AcDbMaterial
  3
ObjectDBX Classes
 90
1153
 91
0
280
0
281
0
  0
CLASS
  1
SCALE
  2
AcDbScale
  3
ObjectDBX Classes
 90
1153
 91
0
280
0
281
0
  0
CLASS
  1
TABLESTYLE
  2
AcDbTableStyle
  3
ObjectDBX Classes
 90
4095
 91
0
280
0
281
0
  0
CLASS
  1
MLEADERSTYLE
  2
AcDbMLeaderStyle
  3
ACDB_MLEADERSTYLE_CLASS
 90
4095
 91
0
280
0
281
0
  0
CLASS
  1
DICTIONARYVAR
  2
AcDbDictionaryVar
  3
ObjectDBX Classes
 90
0
 91
0
280
0
281
0
  0
CLASS
  1
CELLSTYLEMAP
  2
AcDbCellStyleMap
  3
ObjectDBX Classes
 90
1152
 91
0
280
0
281
0
  0
CLASS
  1
MENTALRAYRENDERSETTINGS
  2
AcDbMentalRayRenderSettings
  3
SCENEOE
 90
1024
 91
0
280
0
281
0
  0
CLASS
  1
ACDBDETAILVIEWSTYLE
  2
AcDbDetailViewStyle
  3
ObjectDBX Classes
 90
1025
 91
0
280
0
281
0
  0
CLASS
  1
ACDBSECTIONVIEWSTYLE
  2
AcDbSectionViewStyle
  3
ObjectDBX Classes
 90
1025
 91
0
280
0
281
0
  0
CLASS
  1
RASTERVARIABLES
  2
AcDbRasterVariables
  3
ISM
 90
0
 91
0
280
0
281
0
  0
CLASS
  1
ACDBPLACEHOLDER
  2
AcDbPlaceHolder
  3
ObjectDBX Classes
 90
0
 91
0
280
0
281
0
  0
CLASS
  1
LAYOUT
  2
AcDbLayout
  3
ObjectDBX Classes
 90
0
 91
0
280
0
281
0
  0
ENDSEC
  0
SECTION
  2
TABLES
  0
TABLE
  2
VPORT
  5
8
330
0
100
AcDbSymbolTable
 70
1
  0
VPORT
  5
23
330
8
100
AcDbSymbolTableRecord
100
AcDbViewportTableRecord
  2
*Active
 70
0
 10
0.0
 20
0.0
 11
1.0
 21
1.0
 12
0.0
 22
0.0
 13
0.0
 23
0.0
 14
0.5
 24
0.5
 15
0.5
 25
0.5
 16
0.0
 26
0.0
 36
1.0
 17
0.0
 27
0.0
 37
0.0
 40
1000.0
 41
1.34
 42
50.0
 43
0.0
 44
0.0
 50
0.0
 51
0.0
 71
0
 72
1000
 73
1
 74
3
 75
0
 76
0
 77
0
 78
0
281
0
 65
0
146
0.0
  0
ENDTAB
  0
TABLE
  2
LTYPE
  5
2
330
0
100
AcDbSymbolTable
 70
4
  0
LTYPE
  5
24
330
2
100
AcDbSymbolTableRecord
100
AcDbLinetypeTableRecord
  2
ByBlock
 70
0
  3

 72
65
 73
0
 40
0.0
  0
LTYPE
  5
25
330
2
100
AcDbSymbolTableRecord
100
AcDbLinetypeTableRecord
  2
ByLayer
 70
0
  3

 72
65
 73
0
 40
0.0
  0
LTYPE
  5
26
330
2
100
AcDbSymbolTableRecord
100
AcDbLinetypeTableRecord
  2
Continuous
 70
0
  3

 72
65
 73
0
 40
0.0
  0
LTYPE
  5
37
330
2
100
AcDbSymbolTableRecord
100
AcDbLinetypeTableRecord
  2
DASHED
 70
0
  3

 72
65
 73
1
 40
6.0
 49
-3.0
 74
0
  0
ENDTAB
  0
TABLE
  2
LAYER
  5
1
330
0
100
AcDbSymbolTable
 70
10
  0
LAYER
  5
27
330
1
100
AcDbSymbolTableRecord
100
AcDbLayerTableRecord
  2
0
 70
0
 62
7
  6
Continuous
370
-3
390
13
347
21
  0
LAYER
  5
28
330
1
100
AcDbSymbolTableRecord
100
AcDbLayerTableRecord
  2
Defpoints
 70
0
 62
7
  6
Continuous
290
0
370
-3
390
13
347
21
  0
LAYER
  5
2F
330
1
100
AcDbSymbolTableRecord
100
AcDbLayerTableRecord
  2
BORDER
 70
0
 62
7
  6
Continuous
370
70
390
13
347
21
  0
LAYER
  5
30
330
1
100
AcDbSymbolTableRecord
100
AcDbLayerTableRecord
  2
TITLE
 70
0
 62
7
  6
Continuous
370
35
390
13
347
21
  0
LAYER
  5
31
330
1
100
AcDbSymbolTableRecord
100
AcDbLayerTableRecord
  2
PROCESS
 70
0
 62
5
  6
Continuous
370
50
390
13
347
21
  0
LAYER
  5
32
330
1
100
AcDbSymbolTableRecord
100
AcDbLayerTableRecord
  2
EQUIP
 70
0
 62
7
  6
Continuous
370
35
390
13
347
21
  0
LAYER
  5
33
330
1
100
AcDbSymbolTableRecord
100
AcDbLayerTableRecord
  2
INSTRU
 70
0
 62
2
  6
Continuous
370
25
390
13
347
21
  0
LAYER
  5
34
330
1
100
AcDbSymbolTableRecord
100
AcDbLayerTableRecord
  2
SIGNAL
 70
0
 62
3
  6
Continuous
370
18
390
13
347
21
  0
LAYER
  5
35
330
1
100
AcDbSymbolTableRecord
100
AcDbLayerTableRecord
  2
SAFETY
 70
0
 62
1
  6
Continuous
370
35
390
13
347
21
  0
LAYER
  5
36
330
1
100
AcDbSymbolTableRecord
100
AcDbLayerTableRecord
  2
ANNOT
 70
0
 62
7
  6
Continuous
370
18
390
13
347
21
  0
ENDTAB
  0
TABLE
  2
STYLE
  5
5
330
0
100
AcDbSymbolTable
 70
1
  0
STYLE
  5
29
330
5
100
AcDbSymbolTableRecord
100
AcDbTextStyleTableRecord
  2
Standard
 70
0
 40
0.0
 41
1.0
 50
0.0
 71
0
 42
2.5
  3
txt
  4

  0
ENDTAB
  0
TABLE
  2
VIEW
  5
7
330
0
100
AcDbSymbolTable
 70
0
  0
ENDTAB
  0
TABLE
  2
UCS
  5
6
330
0
100
AcDbSymbolTable
 70
0
  0
ENDTAB
  0
TABLE
  2
APPID
  5
3
330
0
100
AcDbSymbolTable
 70
3
  0
APPID
  5
2A
330
3
100
AcDbSymbolTableRecord
100
AcDbRegAppTableRecord
  2
ACAD
 70
0
  0
APPID
  5
149
330
3
100
AcDbSymbolTableRecord
100
AcDbRegAppTableRecord
  2
HATCHBACKGROUNDCOLOR
 70
0
  0
APPID
  5
14A
330
3
100
AcDbSymbolTableRecord
100
AcDbRegAppTableRecord
  2
EZDXF
 70
0
  0
ENDTAB
  0
TABLE
  2
DIMSTYLE
  5
4
330
0
100
AcDbSymbolTable
 70
1
100
AcDbDimStyleTable
  0
DIMSTYLE
105
2B
330
4
100
AcDbSymbolTableRecord
100
AcDbDimStyleTableRecord
  2
Standard
 70
0
 40
1.0
 41
2.5
 42
0.625
 43
3.75
 44
1.25
 45
0.0
 46
0.0
 47
0.0
 48
0.0
 49
2.5
140
2.5
141
2.5
142
0.0
143
0.03937007874
144
1.0
145
0.0
146
1.0
147
0.625
148
0.0
 69
0
 70
0
 71
0
 72
0
 73
0
 74
0
 75
0
 76
0
 77
1
 78
8
 79
3
170
0
171
3
172
1
173
0
174
0
175
0
176
0
177
0
178
0
179
2
271
2
272
2
273
2
274
3
275
0
276
0
277
2
278
44
279
0
280
0
281
0
282
0
283
0
284
8
285
0
286
0
288
0
289
3
290
0
371
-2
372
-2
  0
ENDTAB
  0
TABLE
  2
BLOCK_RECORD
  5
9
330
0
100
AcDbSymbolTable
 70
2
  0
BLOCK_RECORD
  5
17
330
9
100
AcDbSymbolTableRecord
100
AcDbBlockTableRecord
  2
*Model_Space
340
1A
 70
0
280
1
281
0
  0
BLOCK_RECORD
  5
1B
330
9
100
AcDbSymbolTableRecord
100
AcDbBlockTableRecord
  2
*Paper_Space
340
1E
 70
0
280
1
281
0
  0
ENDTAB
  0
ENDSEC
  0
SECTION
  2
BLOCKS
  0
BLOCK
  5
18
330
17
100
AcDbEntity
  8
0
100
AcDbBlockBegin
  2
*Model_Space
 70
0
 10
0.0
 20
0.0
 30
0.0
  3
*Model_Space
  1

  0
ENDBLK
  5
19
330
17
100
AcDbEntity
  8
0
100
AcDbBlockEnd
  0
BLOCK
  5
1C
330
1B
100
AcDbEntity
  8
0
100
AcDbBlockBegin
  2
*Paper_Space
 70
0
 10
0.0
 20
0.0
 30
0.0
  3
*Paper_Space
  1

  0
ENDBLK
  5
1D
330
1B
100
AcDbEntity
  8
0
100
AcDbBlockEnd
  0
ENDSEC
  0
SECTION
  2
ENTITIES
  0
LWPOLYLINE
  5
38
330
17
100
AcDbEntity
  8
BORDER
100
AcDbPolyline
 90
4
 70
1
 10
8.0
 20
8.0
 10
833.0
 20
8.0
 10
833.0
 20
586.0
 10
8.0
 20
586.0
  0
LWPOLYLINE
  5
39
330
17
100
AcDbEntity
  8
TITLE
100
AcDbPolyline
 90
4
 70
1
 10
8.0
 20
8.0
 10
833.0
 20
8.0
 10
833.0
 20
55.0
 10
8.0
 20
55.0
  0
LINE
  5
3A
330
17
100
AcDbEntity
  8
TITLE
100
AcDbLine
 10
8.0
 20
55.0
 30
0.0
 11
833.0
 21
55.0
 31
0.0
  0
LINE
  5
3B
330
17
100
AcDbEntity
  8
TITLE
100
AcDbLine
 10
570.0
 20
8.0
 30
0.0
 11
570.0
 21
55.0
 31
0.0
  0
LINE
  5
3C
330
17
100
AcDbEntity
  8
TITLE
100
AcDbLine
 10
710.0
 20
8.0
 30
0.0
 11
710.0
 21
55.0
 31
0.0
  0
LINE
  5
3D
330
17
100
AcDbEntity
  8
TITLE
100
AcDbLine
 10
570.0
 20
32.0
 30
0.0
 11
833.0
 21
32.0
 31
0.0
  0
TEXT
  5
3E
330
17
100
AcDbEntity
  8
TITLE
100
AcDbText
 10
18.0
 20
40.0
 30
0.0
 40
7.5
  1
HIBACIP  —  CIP BOILER DESCALING AUTOMATION SYSTEM
100
AcDbText
  0
TEXT
  5
3F
330
17
100
AcDbEntity
  8
TITLE
100
AcDbText
 10
18.0
 20
27.0
 30
0.0
 40
5.0
  1
PIPING AND INSTRUMENTATION DIAGRAM (P&ID)   |   ISA-5.1  |  IEC 61511
100
AcDbText
  0
TEXT
  5
40
330
17
100
AcDbEntity
  8
TITLE
100
AcDbText
 10
18.0
 20
14.0
 30
0.0
 40
3.5
  1
Université du 20 Août 1955, Skikda  ·  Built in CODESYS V3.5 SP22  ·  IEC 61131-3
100
AcDbText
  0
TEXT
  5
41
330
17
100
AcDbEntity
  8
TITLE
100
AcDbText
 10
576.0
 20
44.0
 30
0.0
 40
3.0
  1
DWG NO:
100
AcDbText
  0
TEXT
  5
42
330
17
100
AcDbEntity
  8
TITLE
100
AcDbText
 10
622.0
 20
44.0
 30
0.0
 40
4.0
  1
HIBACIP-PID-001
100
AcDbText
  0
TEXT
  5
43
330
17
100
AcDbEntity
  8
TITLE
100
AcDbText
 10
576.0
 20
36.0
 30
0.0
 40
3.0
  1
REV:
100
AcDbText
  0
TEXT
  5
44
330
17
100
AcDbEntity
  8
TITLE
100
AcDbText
 10
600.0
 20
36.0
 30
0.0
 40
4.0
  1
A
100
AcDbText
  0
TEXT
  5
45
330
17
100
AcDbEntity
  8
TITLE
100
AcDbText
 10
576.0
 20
24.0
 30
0.0
 40
3.0
  1
SCALE:
100
AcDbText
  0
TEXT
  5
46
330
17
100
AcDbEntity
  8
TITLE
100
AcDbText
 10
606.0
 20
24.0
 30
0.0
 40
4.0
  1
NTS
100
AcDbText
  0
TEXT
  5
47
330
17
100
AcDbEntity
  8
TITLE
100
AcDbText
 10
576.0
 20
14.0
 30
0.0
 40
3.0
  1
DATE: 2026-06-10
100
AcDbText
  0
TEXT
  5
48
330
17
100
AcDbEntity
  8
TITLE
100
AcDbText
 10
716.0
 20
44.0
 30
0.0
 40
3.0
  1
SHEET:
100
AcDbText
  0
TEXT
  5
49
330
17
100
AcDbEntity
  8
TITLE
100
AcDbText
 10
746.0
 20
44.0
 30
0.0
 40
4.0
  1
1 OF 1
100
AcDbText
  0
TEXT
  5
4A
330
17
100
AcDbEntity
  8
TITLE
100
AcDbText
 10
716.0
 20
36.0
 30
0.0
 40
3.0
  1
STATUS:
100
AcDbText
  0
TEXT
  5
4B
330
17
100
AcDbEntity
  8
TITLE
100
AcDbText
 10
748.0
 20
36.0
 30
0.0
 40
3.0
  1
FOR REVIEW
100
AcDbText
  0
TEXT
  5
4C
330
17
100
AcDbEntity
  8
TITLE
100
AcDbText
 10
716.0
 20
14.0
 30
0.0
 40
3.0
  1
CLASS: PROCESS DESIGN
100
AcDbText
  0
CIRCLE
  5
4D
330
17
100
AcDbEntity
  8
EQUIP
100
AcDbCircle
 10
180.0
 20
280.0
 30
0.0
 40
22.0
  0
LWPOLYLINE
  5
4E
330
17
100
AcDbEntity
  8
EQUIP
100
AcDbPolyline
 90
3
 70
1
 10
171.0
 20
271.0
 10
196.0
 20
280.0
 10
171.0
 20
289.0
  0
TEXT
  5
4F
330
17
100
AcDbEntity
  8
ANNOT
100
AcDbText
 10
158.0
 20
244.0
 30
0.0
 40
3.5
  1
P-01
100
AcDbText
  0
TEXT
  5
50
330
17
100
AcDbEntity
  8
ANNOT
100
AcDbText
 10
150.0
 20
234.0
 30
0.0
 40
3.0
  1
CIRC. PUMP
100
AcDbText
  0
LWPOLYLINE
  5
51
330
17
100
AcDbEntity
  8
EQUIP
100
AcDbPolyline
 90
4
 70
1
 10
310.0
 20
240.0
 10
395.0
 20
240.0
 10
395.0
 20
320.0
 10
310.0
 20
320.0
  0
LINE
  5
52
330
17
100
AcDbEntity
  8
EQUIP
100
AcDbLine
 10
310.0
 20
254.0
 30
0.0
 11
395.0
 21
254.0
 31
0.0
  0
LINE
  5
53
330
17
100
AcDbEntity
  8
EQUIP
100
AcDbLine
 10
310.0
 20
268.0
 30
0.0
 11
395.0
 21
268.0
 31
0.0
  0
LINE
  5
54
330
17
100
AcDbEntity
  8
EQUIP
100
AcDbLine
 10
310.0
 20
282.0
 30
0.0
 11
395.0
 21
282.0
 31
0.0
  0
LINE
  5
55
330
17
100
AcDbEntity
  8
EQUIP
100
AcDbLine
 10
310.0
 20
296.0
 30
0.0
 11
395.0
 21
296.0
 31
0.0
  0
LINE
  5
56
330
17
100
AcDbEntity
  8
EQUIP
100
AcDbLine
 10
310.0
 20
310.0
 30
0.0
 11
395.0
 21
310.0
 31
0.0
  0
LINE
  5
57
330
17
100
AcDbEntity
  8
EQUIP
100
AcDbLine
 10
352.0
 20
320.0
 30
0.0
 11
352.0
 21
340.0
 31
0.0
  0
LINE
  5
58
330
17
100
AcDbEntity
  8
EQUIP
100
AcDbLine
 10
352.0
 20
240.0
 30
0.0
 11
352.0
 21
220.0
 31
0.0
  0
TEXT
  5
59
330
17
100
AcDbEntity
  8
ANNOT
100
AcDbText
 10
305.0
 20
230.0
 30
0.0
 40
3.0
  1
HE-01
100
AcDbText
  0
TEXT
  5
5A
330
17
100
AcDbEntity
  8
ANNOT
100
AcDbText
 10
300.0
 20
220.0
 30
0.0
 40
2.8
  1
STEAM HX
100
AcDbText
  0
LWPOLYLINE
  5
5B
330
17
100
AcDbEntity
  8
EQUIP
100
AcDbPolyline
 90
4
 70
1
 10
490.0
 20
180.0
 10
580.0
 20
180.0
 10
580.0
 20
460.0
 10
490.0
 20
460.0
  0
ARC
  5
5C
330
17
100
AcDbEntity
  8
EQUIP
100
AcDbCircle
 10
535.0
 20
460.0
 30
0.0
 40
45.0
100
AcDbArc
 50
0.0
 51
180.0
  0
ARC
  5
5D
330
17
100
AcDbEntity
  8
EQUIP
100
AcDbCircle
 10
535.0
 20
180.0
 30
0.0
 40
45.0
100
AcDbArc
 50
180.0
 51
360.0
  0
LINE
  5
5E
330
17
100
AcDbEntity
  8
EQUIP
100
AcDbLine
 10
535.0
 20
505.0
 30
0.0
 11
535.0
 21
525.0
 31
0.0
  0
LINE
  5
5F
330
17
100
AcDbEntity
  8
EQUIP
100
AcDbLine
 10
535.0
 20
135.0
 30
0.0
 11
535.0
 21
115.0
 31
0.0
  0
TEXT
  5
60
330
17
100
AcDbEntity
  8
ANNOT
100
AcDbText
 10
527.0
 20
334.0
 30
0.0
 40
3.5
  1
V-01
100
AcDbText
  0
TEXT
  5
61
330
17
100
AcDbEntity
  8
ANNOT
100
AcDbText
 10
513.0
 20
322.0
 30
0.0
 40
3.0
  1
HOT WATER
100
AcDbText
  0
TEXT
  5
62
330
17
100
AcDbEntity
  8
ANNOT
100
AcDbText
 10
521.0
 20
310.0
 30
0.0
 40
3.0
  1
BOILER
100
AcDbText
  0
TEXT
  5
63
330
17
100
AcDbEntity
  8
ANNOT
100
AcDbText
 10
517.0
 20
298.0
 30
0.0
 40
2.8
  1
C1020 STEEL
100
AcDbText
  0
LWPOLYLINE
  5
64
330
17
100
AcDbEntity
  8
EQUIP
100
AcDbPolyline
 90
4
 70
1
 10
120.0
 20
490.0
 10
190.0
 20
490.0
 10
190.0
 20
540.0
 10
120.0
 20
540.0
  0
TEXT
  5
65
330
17
100
AcDbEntity
  8
ANNOT
100
AcDbText
 10
150.1
 20
523.775
 30
0.0
 40
3.5
  1
TK-01
100
AcDbText
  0
TEXT
  5
66
330
17
100
AcDbEntity
  8
ANNOT
100
AcDbText
 10
145.76
 20
509.95
 30
0.0
 40
3.0
  1
NaOH 2% m/v
100
AcDbText
  0
LWPOLYLINE
  5
67
330
17
100
AcDbEntity
  8
EQUIP
100
AcDbPolyline
 90
4
 70
1
 10
295.0
 20
490.0
 10
365.0
 20
490.0
 10
365.0
 20
540.0
 10
295.0
 20
540.0
  0
TEXT
  5
68
330
17
100
AcDbEntity
  8
ANNOT
100
AcDbText
 10
325.1
 20
523.775
 30
0.0
 40
3.5
  1
TK-02
100
AcDbText
  0
TEXT
  5
69
330
17
100
AcDbEntity
  8
ANNOT
100
AcDbText
 10
318.24
 20
509.95
 30
0.0
 40
3.0
  1
CH3COOH 1% v/v
100
AcDbText
  0
LINE
  5
6A
330
17
100
AcDbEntity
  8
PROCESS
100
AcDbLine
 10
202.0
 20
280.0
 30
0.0
 11
310.0
 21
280.0
 31
0.0
  0
LINE
  5
6B
330
17
100
AcDbEntity
  8
PROCESS
100
AcDbLine
 10
310.0
 20
280.0
 30
0.0
 11
395.0
 21
280.0
 31
0.0
  0
LINE
  5
6C
330
17
100
AcDbEntity
  8
PROCESS
100
AcDbLine
 10
395.0
 20
280.0
 30
0.0
 11
460.0
 21
280.0
 31
0.0
  0
LINE
  5
6D
330
17
100
AcDbEntity
  8
PROCESS
100
AcDbLine
 10
460.0
 20
280.0
 30
0.0
 11
460.0
 21
180.0
 31
0.0
  0
LINE
  5
6E
330
17
100
AcDbEntity
  8
PROCESS
100
AcDbLine
 10
460.0
 20
180.0
 30
0.0
 11
490.0
 21
180.0
 31
0.0
  0
LINE
  5
6F
330
17
100
AcDbEntity
  8
PROCESS
100
AcDbLine
 10
535.0
 20
460.0
 30
0.0
 11
535.0
 21
490.0
 31
0.0
  0
LINE
  5
70
330
17
100
AcDbEntity
  8
PROCESS
100
AcDbLine
 10
535.0
 20
460.0
 30
0.0
 11
535.0
 21
490.0
 31
0.0
  0
LINE
  5
71
330
17
100
AcDbEntity
  8
PROCESS
100
AcDbLine
 10
535.0
 20
490.0
 30
0.0
 11
535.0
 21
510.0
 31
0.0
  0
LINE
  5
72
330
17
100
AcDbEntity
  8
PROCESS
100
AcDbLine
 10
535.0
 20
510.0
 30
0.0
 11
100.0
 21
510.0
 31
0.0
  0
LINE
  5
73
330
17
100
AcDbEntity
  8
PROCESS
100
AcDbLine
 10
100.0
 20
510.0
 30
0.0
 11
100.0
 21
280.0
 31
0.0
  0
LINE
  5
74
330
17
100
AcDbEntity
  8
PROCESS
100
AcDbLine
 10
100.0
 20
280.0
 30
0.0
 11
158.0
 21
280.0
 31
0.0
  0
LINE
  5
75
330
17
100
AcDbEntity
  8
PROCESS
100
AcDbLine
 10
352.0
 20
560.0
 30
0.0
 11
352.0
 21
340.0
 31
0.0
  0
LWPOLYLINE
  5
76
330
17
100
AcDbEntity
  8
INSTRU
100
AcDbPolyline
 90
3
 70
1
 10
344.0
 20
332.0
 10
360.0
 20
332.0
 10
352.0
 20
340.0
  0
LWPOLYLINE
  5
77
330
17
100
AcDbEntity
  8
INSTRU
100
AcDbPolyline
 90
3
 70
1
 10
344.0
 20
348.0
 10
360.0
 20
348.0
 10
352.0
 20
340.0
  0
LWPOLYLINE
  5
78
330
17
100
AcDbEntity
  8
INSTRU
100
AcDbPolyline
 90
4
 70
1
 10
352.0
 20
348.0
 10
359.0
 20
355.0
 10
352.0
 20
362.0
 10
345.0
 20
355.0
  0
LINE
  5
79
330
17
100
AcDbEntity
  8
INSTRU
100
AcDbLine
 10
352.0
 20
348.0
 30
0.0
 11
352.0
 21
348.0
 31
0.0
  0
TEXT
  5
7A
330
17
100
AcDbEntity
  8
ANNOT
100
AcDbText
 10
369.0
 20
338.0
 30
0.0
 40
2.8
  1
FCV-101
100
AcDbText
  0
LINE
  5
7B
330
17
100
AcDbEntity
  8
PROCESS
100
AcDbLine
 10
352.0
 20
320.0
 30
0.0
 11
352.0
 21
320.0
 31
0.0
  0
LINE
  5
7C
330
17
100
AcDbEntity
  8
PROCESS
100
AcDbLine
 10
352.0
 20
324.0
 30
0.0
 11
352.0
 21
320.0
 31
0.0
  0
LINE
  5
7D
330
17
100
AcDbEntity
  8
PROCESS
100
AcDbLine
 10
352.0
 20
220.0
 30
0.0
 11
352.0
 21
130.0
 31
0.0
  0
TEXT
  5
7E
330
17
100
AcDbEntity
  8
ANNOT
100
AcDbText
 10
356.0
 20
115.0
 30
0.0
 40
3.0
  1
CONDENSATE RETURN
100
AcDbText
  0
LINE
  5
7F
330
17
100
AcDbEntity
  8
PROCESS
100
AcDbLine
 10
155.0
 20
490.0
 30
0.0
 11
155.0
 21
510.0
 31
0.0
  0
LWPOLYLINE
  5
80
330
17
100
AcDbEntity
  8
INSTRU
100
AcDbPolyline
 90
3
 70
1
 10
147.0
 20
502.0
 10
147.0
 20
518.0
 10
155.0
 20
510.0
  0
LWPOLYLINE
  5
81
330
17
100
AcDbEntity
  8
INSTRU
100
AcDbPolyline
 90
3
 70
1
 10
163.0
 20
502.0
 10
163.0
 20
518.0
 10
155.0
 20
510.0
  0
CIRCLE
  5
82
330
17
100
AcDbEntity
  8
INSTRU
100
AcDbCircle
 10
155.0
 20
524.0
 30
0.0
 40
5.0
  0
LINE
  5
83
330
17
100
AcDbEntity
  8
INSTRU
100
AcDbLine
 10
155.0
 20
518.0
 30
0.0
 11
155.0
 21
519.0
 31
0.0
  0
TEXT
  5
84
330
17
100
AcDbEntity
  8
ANNOT
100
AcDbText
 10
149.0
 20
532.0
 30
0.0
 40
2.8
  1
XV-101
100
AcDbText
  0
TEXT
  5
85
330
17
100
AcDbEntity
  8
ANNOT
100
AcDbText
 10
148.0
 20
542.0
 30
0.0
 40
2.8
  1
NaOHInjection
100
AcDbText
  0
LINE
  5
86
330
17
100
AcDbEntity
  8
PROCESS
100
AcDbLine
 10
330.0
 20
490.0
 30
0.0
 11
330.0
 21
510.0
 31
0.0
  0
LWPOLYLINE
  5
87
330
17
100
AcDbEntity
  8
INSTRU
100
AcDbPolyline
 90
3
 70
1
 10
322.0
 20
502.0
 10
322.0
 20
518.0
 10
330.0
 20
510.0
  0
LWPOLYLINE
  5
88
330
17
100
AcDbEntity
  8
INSTRU
100
AcDbPolyline
 90
3
 70
1
 10
338.0
 20
502.0
 10
338.0
 20
518.0
 10
330.0
 20
510.0
  0
CIRCLE
  5
89
330
17
100
AcDbEntity
  8
INSTRU
100
AcDbCircle
 10
330.0
 20
524.0
 30
0.0
 40
5.0
  0
LINE
  5
8A
330
17
100
AcDbEntity
  8
INSTRU
100
AcDbLine
 10
330.0
 20
518.0
 30
0.0
 11
330.0
 21
519.0
 31
0.0
  0
TEXT
  5
8B
330
17
100
AcDbEntity
  8
ANNOT
100
AcDbText
 10
324.0
 20
532.0
 30
0.0
 40
2.8
  1
XV-102
100
AcDbText
  0
TEXT
  5
8C
330
17
100
AcDbEntity
  8
ANNOT
100
AcDbText
 10
322.0
 20
542.0
 30
0.0
 40
2.8
  1
AcidInjection
100
AcDbText
  0
LINE
  5
8D
330
17
100
AcDbEntity
  8
PROCESS
100
AcDbLine
 10
65.0
 20
510.0
 30
0.0
 11
100.0
 21
510.0
 31
0.0
  0
TEXT
  5
8E
330
17
100
AcDbEntity
  8
ANNOT
100
AcDbText
 10
20.0
 20
513.0
 30
0.0
 40
3.0
  1
RINSEWATER
100
AcDbText
  0
LWPOLYLINE
  5
8F
330
17
100
AcDbEntity
  8
INSTRU
100
AcDbPolyline
 90
3
 70
1
 10
74.0
 20
502.0
 10
90.0
 20
502.0
 10
82.0
 20
510.0
  0
LWPOLYLINE
  5
90
330
17
100
AcDbEntity
  8
INSTRU
100
AcDbPolyline
 90
3
 70
1
 10
74.0
 20
518.0
 10
90.0
 20
518.0
 10
82.0
 20
510.0
  0
CIRCLE
  5
91
330
17
100
AcDbEntity
  8
INSTRU
100
AcDbCircle
 10
96.0
 20
510.0
 30
0.0
 40
5.0
  0
LINE
  5
92
330
17
100
AcDbEntity
  8
INSTRU
100
AcDbLine
 10
90.0
 20
510.0
 30
0.0
 11
91.0
 21
510.0
 31
0.0
  0
TEXT
  5
93
330
17
100
AcDbEntity
  8
ANNOT
100
AcDbText
 10
104.0
 20
508.0
 30
0.0
 40
2.8
  1
XV-103
100
AcDbText
  0
LWPOLYLINE
  5
94
330
17
100
AcDbEntity
  8
INSTRU
100
AcDbPolyline
 90
3
 70
1
 10
92.0
 20
372.0
 10
92.0
 20
388.0
 10
100.0
 20
380.0
  0
LWPOLYLINE
  5
95
330
17
100
AcDbEntity
  8
INSTRU
100
AcDbPolyline
 90
3
 70
1
 10
108.0
 20
372.0
 10
108.0
 20
388.0
 10
100.0
 20
380.0
  0
CIRCLE
  5
96
330
17
100
AcDbEntity
  8
INSTRU
100
AcDbCircle
 10
100.0
 20
394.0
 30
0.0
 40
5.0
  0
LINE
  5
97
330
17
100
AcDbEntity
  8
INSTRU
100
AcDbLine
 10
100.0
 20
388.0
 30
0.0
 11
100.0
 21
389.0
 31
0.0
  0
TEXT
  5
98
330
17
100
AcDbEntity
  8
ANNOT
100
AcDbText
 10
94.0
 20
402.0
 30
0.0
 40
2.8
  1
XV-104
100
AcDbText
  0
LINE
  5
99
330
17
100
AcDbEntity
  8
PROCESS
100
AcDbLine
 10
100.0
 20
372.0
 30
0.0
 11
100.0
 21
108.0
 31
0.0
  0
TEXT
  5
9A
330
17
100
AcDbEntity
  8
ANNOT
100
AcDbText
 10
106.0
 20
90.0
 30
0.0
 40
4.0
  1
DRAIN
100
AcDbText
  0
LWPOLYLINE
  5
9B
330
17
100
AcDbEntity
  8
PROCESS
100
AcDbPolyline
 90
3
 70
1
 10
100.0
 20
108.0
 10
92.0
 20
122.0
 10
108.0
 20
122.0
  0
CIRCLE
  5
9C
330
17
100
AcDbEntity
  8
INSTRU
100
AcDbCircle
 10
420.0
 20
240.0
 30
0.0
 40
9.0
  0
LINE
  5
9D
330
17
100
AcDbEntity
  8
INSTRU
100
AcDbLine
 10
411.0
 20
240.0
 30
0.0
 11
429.0
 21
240.0
 31
0.0
  0
TEXT
  5
9E
330
17
100
AcDbEntity
  8
ANNOT
100
AcDbText
 10
418.32
 20
242.45
 30
0.0
 40
3.0
  1
TT
100
AcDbText
  0
TEXT
  5
9F
330
17
100
AcDbEntity
  8
ANNOT
100
AcDbText
 10
417.48
 20
237.45
 30
0.0
 40
3.0
  1
101
100
AcDbText
  0
LINE
  5
A0
330
17
100
AcDbEntity
  8
SIGNAL
  6
DASHED
100
AcDbLine
 10
420.0
 20
280.0
 30
0.0
 11
420.0
 21
249.0
 31
0.0
  0
CIRCLE
  5
A1
330
17
100
AcDbEntity
  8
INSTRU
100
AcDbCircle
 10
445.0
 20
220.0
 30
0.0
 40
9.0
  0
LINE
  5
A2
330
17
100
AcDbEntity
  8
INSTRU
100
AcDbLine
 10
436.0
 20
220.0
 30
0.0
 11
454.0
 21
220.0
 31
0.0
  0
TEXT
  5
A3
330
17
100
AcDbEntity
  8
ANNOT
100
AcDbText
 10
443.32
 20
222.45
 30
0.0
 40
3.0
  1
PT
100
AcDbText
  0
TEXT
  5
A4
330
17
100
AcDbEntity
  8
ANNOT
100
AcDbText
 10
442.48
 20
217.45
 30
0.0
 40
3.0
  1
101
100
AcDbText
  0
LINE
  5
A5
330
17
100
AcDbEntity
  8
SIGNAL
  6
DASHED
100
AcDbLine
 10
445.0
 20
280.0
 30
0.0
 11
445.0
 21
229.0
 31
0.0
  0
CIRCLE
  5
A6
330
17
100
AcDbEntity
  8
INSTRU
100
AcDbCircle
 10
480.0
 20
220.0
 30
0.0
 40
9.0
  0
LINE
  5
A7
330
17
100
AcDbEntity
  8
INSTRU
100
AcDbLine
 10
471.0
 20
220.0
 30
0.0
 11
489.0
 21
220.0
 31
0.0
  0
TEXT
  5
A8
330
17
100
AcDbEntity
  8
ANNOT
100
AcDbText
 10
477.48
 20
222.45
 30
0.0
 40
3.0
  1
PSH
100
AcDbText
  0
TEXT
  5
A9
330
17
100
AcDbEntity
  8
ANNOT
100
AcDbText
 10
477.48
 20
217.45
 30
0.0
 40
3.0
  1
101
100
AcDbText
  0
LINE
  5
AA
330
17
100
AcDbEntity
  8
SIGNAL
  6
DASHED
100
AcDbLine
 10
480.0
 20
280.0
 30
0.0
 11
480.0
 21
229.0
 31
0.0
  0
CIRCLE
  5
AB
330
17
100
AcDbEntity
  8
INSTRU
100
AcDbCircle
 10
420.0
 20
180.0
 30
0.0
 40
9.0
  0
LINE
  5
AC
330
17
100
AcDbEntity
  8
INSTRU
100
AcDbLine
 10
411.0
 20
180.0
 30
0.0
 11
429.0
 21
180.0
 31
0.0
  0
TEXT
  5
AD
330
17
100
AcDbEntity
  8
ANNOT
100
AcDbText
 10
417.48
 20
182.45
 30
0.0
 40
3.0
  1
TSH
100
AcDbText
  0
TEXT
  5
AE
330
17
100
AcDbEntity
  8
ANNOT
100
AcDbText
 10
417.48
 20
177.45
 30
0.0
 40
3.0
  1
101
100
AcDbText
  0
LINE
  5
AF
330
17
100
AcDbEntity
  8
SIGNAL
  6
DASHED
100
AcDbLine
 10
420.0
 20
240.0
 30
0.0
 11
420.0
 21
189.0
 31
0.0
  0
CIRCLE
  5
B0
330
17
100
AcDbEntity
  8
INSTRU
100
AcDbCircle
 10
200.0
 20
550.0
 30
0.0
 40
9.0
  0
LINE
  5
B1
330
17
100
AcDbEntity
  8
INSTRU
100
AcDbLine
 10
191.0
 20
550.0
 30
0.0
 11
209.0
 21
550.0
 31
0.0
  0
TEXT
  5
B2
330
17
100
AcDbEntity
  8
ANNOT
100
AcDbText
 10
198.32
 20
552.45
 30
0.0
 40
3.0
  1
FT
100
AcDbText
  0
TEXT
  5
B3
330
17
100
AcDbEntity
  8
ANNOT
100
AcDbText
 10
197.48
 20
547.45
 30
0.0
 40
3.0
  1
101
100
AcDbText
  0
LINE
  5
B4
330
17
100
AcDbEntity
  8
SIGNAL
  6
DASHED
100
AcDbLine
 10
200.0
 20
510.0
 30
0.0
 11
200.0
 21
541.0
 31
0.0
  0
LWPOLYLINE
  5
B5
330
17
100
AcDbEntity
  8
INSTRU
100
AcDbPolyline
 90
4
 70
1
 10
196.0
 20
510.0
 10
200.0
 20
515.0
 10
204.0
 20
510.0
 10
200.0
 20
505.0
  0
CIRCLE
  5
B6
330
17
100
AcDbEntity
  8
INSTRU
100
AcDbCircle
 10
260.0
 20
550.0
 30
0.0
 40
9.0
  0
LINE
  5
B7
330
17
100
AcDbEntity
  8
INSTRU
100
AcDbLine
 10
251.0
 20
550.0
 30
0.0
 11
269.0
 21
550.0
 31
0.0
  0
TEXT
  5
B8
330
17
100
AcDbEntity
  8
ANNOT
100
AcDbText
 10
258.32
 20
552.45
 30
0.0
 40
3.0
  1
CT
100
AcDbText
  0
TEXT
  5
B9
330
17
100
AcDbEntity
  8
ANNOT
100
AcDbText
 10
257.48
 20
547.45
 30
0.0
 40
3.0
  1
101
100
AcDbText
  0
LINE
  5
BA
330
17
100
AcDbEntity
  8
SIGNAL
  6
DASHED
100
AcDbLine
 10
260.0
 20
510.0
 30
0.0
 11
260.0
 21
541.0
 31
0.0
  0
CIRCLE
  5
BB
330
17
100
AcDbEntity
  8
INSTRU
100
AcDbCircle
 10
200.0
 20
580.0
 30
0.0
 40
9.0
  0
LINE
  5
BC
330
17
100
AcDbEntity
  8
INSTRU
100
AcDbLine
 10
191.0
 20
580.0
 30
0.0
 11
209.0
 21
580.0
 31
0.0
  0
TEXT
  5
BD
330
17
100
AcDbEntity
  8
ANNOT
100
AcDbText
 10
197.48
 20
582.45
 30
0.0
 40
3.0
  1
FSL
100
AcDbText
  0
TEXT
  5
BE
330
17
100
AcDbEntity
  8
ANNOT
100
AcDbText
 10
197.48
 20
577.45
 30
0.0
 40
3.0
  1
101
100
AcDbText
  0
LINE
  5
BF
330
17
100
AcDbEntity
  8
SIGNAL
  6
DASHED
100
AcDbLine
 10
200.0
 20
550.0
 30
0.0
 11
200.0
 21
571.0
 31
0.0
  0
LWPOLYLINE
  5
C0
330
17
100
AcDbEntity
  8
SIGNAL
  6
DASHED
370
35
100
AcDbPolyline
 90
4
 70
1
 10
630.0
 20
150.0
 10
820.0
 20
150.0
 10
820.0
 20
565.0
 10
630.0
 20
565.0
  0
TEXT
  5
C1
330
17
100
AcDbEntity
  8
SIGNAL
100
AcDbText
 10
633.0
 20
550.0
 30
0.0
 40
4.5
  1
CODESYS PLC — CONTROL SYSTEM
100
AcDbText
  0
TEXT
  5
C2
330
17
100
AcDbEntity
  8
SIGNAL
100
AcDbText
 10
633.0
 20
539.0
 30
0.0
 40
3.5
  1
CODESYS V3.5 SP22   |   IEC 61131-3
100
AcDbText
  0
TEXT
  5
C3
330
17
100
AcDbEntity
  8
SIGNAL
100
AcDbText
 10
633.0
 20
529.0
 30
0.0
 40
3.5
  1
ISA-88 STATE MACHINE (15 STATES)
100
AcDbText
  0
LWPOLYLINE
  5
C4
330
17
100
AcDbEntity
  8
SIGNAL
100
AcDbPolyline
 90
4
 70
1
 10
636.0
 20
481.0
 10
654.0
 20
481.0
 10
654.0
 20
499.0
 10
636.0
 20
499.0
  0
LINE
  5
C5
330
17
100
AcDbEntity
  8
SIGNAL
100
AcDbLine
 10
636.0
 20
490.0
 30
0.0
 11
654.0
 21
490.0
 31
0.0
  0
TEXT
  5
C6
330
17
100
AcDbEntity
  8
ANNOT
100
AcDbText
 10
642.48
 20
492.45
 30
0.0
 40
3.0
  1
TIC
100
AcDbText
  0
TEXT
  5
C7
330
17
100
AcDbEntity
  8
ANNOT
100
AcDbText
 10
642.48
 20
487.45
 30
0.0
 40
3.0
  1
101
100
AcDbText
  0
TEXT
  5
C8
330
17
100
AcDbEntity
  8
SIGNAL
100
AcDbText
 10
660.0
 20
488.0
 30
0.0
 40
3.0
  1
TEMP CTRL  SP=30/40°C
100
AcDbText
  0
LWPOLYLINE
  5
C9
330
17
100
AcDbEntity
  8
SIGNAL
100
AcDbPolyline
 90
4
 70
1
 10
636.0
 20
449.0
 10
654.0
 20
449.0
 10
654.0
 20
467.0
 10
636.0
 20
467.0
  0
LINE
  5
CA
330
17
100
AcDbEntity
  8
SIGNAL
100
AcDbLine
 10
636.0
 20
458.0
 30
0.0
 11
654.0
 21
458.0
 31
0.0
  0
TEXT
  5
CB
330
17
100
AcDbEntity
  8
ANNOT
100
AcDbText
 10
642.48
 20
460.45
 30
0.0
 40
3.0
  1
FIC
100
AcDbText
  0
TEXT
  5
CC
330
17
100
AcDbEntity
  8
ANNOT
100
AcDbText
 10
642.48
 20
455.45
 30
0.0
 40
3.0
  1
101
100
AcDbText
  0
TEXT
  5
CD
330
17
100
AcDbEntity
  8
SIGNAL
100
AcDbText
 10
660.0
 20
456.0
 30
0.0
 40
3.0
  1
FLOW CONTROL
100
AcDbText
  0
LWPOLYLINE
  5
CE
330
17
100
AcDbEntity
  8
SIGNAL
100
AcDbPolyline
 90
4
 70
1
 10
636.0
 20
417.0
 10
654.0
 20
417.0
 10
654.0
 20
435.0
 10
636.0
 20
435.0
  0
LINE
  5
CF
330
17
100
AcDbEntity
  8
SIGNAL
100
AcDbLine
 10
636.0
 20
426.0
 30
0.0
 11
654.0
 21
426.0
 31
0.0
  0
TEXT
  5
D0
330
17
100
AcDbEntity
  8
ANNOT
100
AcDbText
 10
642.48
 20
428.45
 30
0.0
 40
3.0
  1
CIC
100
AcDbText
  0
TEXT
  5
D1
330
17
100
AcDbEntity
  8
ANNOT
100
AcDbText
 10
642.48
 20
423.45
 30
0.0
 40
3.0
  1
101
100
AcDbText
  0
TEXT
  5
D2
330
17
100
AcDbEntity
  8
SIGNAL
100
AcDbText
 10
660.0
 20
424.0
 30
0.0
 40
3.0
  1
COND GATE ≤0.5 mS/cm
100
AcDbText
  0
LWPOLYLINE
  5
D3
330
17
100
AcDbEntity
  8
SIGNAL
100
AcDbPolyline
 90
4
 70
1
 10
636.0
 20
385.0
 10
654.0
 20
385.0
 10
654.0
 20
403.0
 10
636.0
 20
403.0
  0
LINE
  5
D4
330
17
100
AcDbEntity
  8
SIGNAL
100
AcDbLine
 10
636.0
 20
394.0
 30
0.0
 11
654.0
 21
394.0
 31
0.0
  0
TEXT
  5
D5
330
17
100
AcDbEntity
  8
ANNOT
100
AcDbText
 10
642.48
 20
396.45
 30
0.0
 40
3.0
  1
PIC
100
AcDbText
  0
TEXT
  5
D6
330
17
100
AcDbEntity
  8
ANNOT
100
AcDbText
 10
642.48
 20
391.45
 30
0.0
 40
3.0
  1
101
100
AcDbText
  0
TEXT
  5
D7
330
17
100
AcDbEntity
  8
SIGNAL
100
AcDbText
 10
660.0
 20
392.0
 30
0.0
 40
3.0
  1
PRESS INDICATOR
100
AcDbText
  0
LWPOLYLINE
  5
D8
330
17
100
AcDbEntity
  8
SIGNAL
100
AcDbPolyline
 90
4
 70
1
 10
636.0
 20
353.0
 10
654.0
 20
353.0
 10
654.0
 20
371.0
 10
636.0
 20
371.0
  0
LINE
  5
D9
330
17
100
AcDbEntity
  8
SIGNAL
100
AcDbLine
 10
636.0
 20
362.0
 30
0.0
 11
654.0
 21
362.0
 31
0.0
  0
TEXT
  5
DA
330
17
100
AcDbEntity
  8
ANNOT
100
AcDbText
 10
642.48
 20
364.45
 30
0.0
 40
3.0
  1
TSH
100
AcDbText
  0
TEXT
  5
DB
330
17
100
AcDbEntity
  8
ANNOT
100
AcDbText
 10
642.48
 20
359.45
 30
0.0
 40
3.0
  1
101
100
AcDbText
  0
TEXT
  5
DC
330
17
100
AcDbEntity
  8
SAFETY
100
AcDbText
 10
660.0
 20
360.0
 30
0.0
 40
3.0
  1
TEMP TRIP ≥60°C  →  IL-1
100
AcDbText
  0
LWPOLYLINE
  5
DD
330
17
100
AcDbEntity
  8
SIGNAL
100
AcDbPolyline
 90
4
 70
1
 10
636.0
 20
321.0
 10
654.0
 20
321.0
 10
654.0
 20
339.0
 10
636.0
 20
339.0
  0
LINE
  5
DE
330
17
100
AcDbEntity
  8
SIGNAL
100
AcDbLine
 10
636.0
 20
330.0
 30
0.0
 11
654.0
 21
330.0
 31
0.0
  0
TEXT
  5
DF
330
17
100
AcDbEntity
  8
ANNOT
100
AcDbText
 10
642.48
 20
332.45
 30
0.0
 40
3.0
  1
PSH
100
AcDbText
  0
TEXT
  5
E0
330
17
100
AcDbEntity
  8
ANNOT
100
AcDbText
 10
642.48
 20
327.45
 30
0.0
 40
3.0
  1
101
100
AcDbText
  0
TEXT
  5
E1
330
17
100
AcDbEntity
  8
SAFETY
100
AcDbText
 10
660.0
 20
328.0
 30
0.0
 40
3.0
  1
PRES TRIP ≥6bar  →  IL-2
100
AcDbText
  0
LWPOLYLINE
  5
E2
330
17
100
AcDbEntity
  8
SIGNAL
100
AcDbPolyline
 90
4
 70
1
 10
636.0
 20
289.0
 10
654.0
 20
289.0
 10
654.0
 20
307.0
 10
636.0
 20
307.0
  0
LINE
  5
E3
330
17
100
AcDbEntity
  8
SIGNAL
100
AcDbLine
 10
636.0
 20
298.0
 30
0.0
 11
654.0
 21
298.0
 31
0.0
  0
TEXT
  5
E4
330
17
100
AcDbEntity
  8
ANNOT
100
AcDbText
 10
642.48
 20
300.45
 30
0.0
 40
3.0
  1
FSL
100
AcDbText
  0
TEXT
  5
E5
330
17
100
AcDbEntity
  8
ANNOT
100
AcDbText
 10
642.48
 20
295.45
 30
0.0
 40
3.0
  1
101
100
AcDbText
  0
TEXT
  5
E6
330
17
100
AcDbEntity
  8
SAFETY
100
AcDbText
 10
660.0
 20
296.0
 30
0.0
 40
3.0
  1
FLOW LOW → IL-3
100
AcDbText
  0
TEXT
  5
E7
330
17
100
AcDbEntity
  8
SIGNAL
100
AcDbText
 10
634.0
 20
245.0
 30
0.0
 40
3.5
  1
OUTPUT  SIGNALS  →  FIELD
100
AcDbText
  0
LWPOLYLINE
  5
E8
330
17
100
AcDbEntity
  8
SIGNAL
100
AcDbPolyline
 90
4
 70
1
 10
635.0
 20
220.0
 10
670.0
 20
220.0
 10
670.0
 20
236.0
 10
635.0
 20
236.0
  0
TEXT
  5
E9
330
17
100
AcDbEntity
  8
SIGNAL
100
AcDbText
 10
636.0
 20
223.0
 30
0.0
 40
3.0
  1
XV-101
100
AcDbText
  0
TEXT
  5
EA
330
17
100
AcDbEntity
  8
ANNOT
100
AcDbText
 10
673.0
 20
223.0
 30
0.0
 40
3.0
  1
NaOH VALVE
100
AcDbText
  0
LWPOLYLINE
  5
EB
330
17
100
AcDbEntity
  8
SIGNAL
100
AcDbPolyline
 90
4
 70
1
 10
635.0
 20
200.0
 10
670.0
 20
200.0
 10
670.0
 20
216.0
 10
635.0
 20
216.0
  0
TEXT
  5
EC
330
17
100
AcDbEntity
  8
SIGNAL
100
AcDbText
 10
636.0
 20
203.0
 30
0.0
 40
3.0
  1
XV-102
100
AcDbText
  0
TEXT
  5
ED
330
17
100
AcDbEntity
  8
ANNOT
100
AcDbText
 10
673.0
 20
203.0
 30
0.0
 40
3.0
  1
ACID VALVE
100
AcDbText
  0
LWPOLYLINE
  5
EE
330
17
100
AcDbEntity
  8
SIGNAL
100
AcDbPolyline
 90
4
 70
1
 10
635.0
 20
180.0
 10
670.0
 20
180.0
 10
670.0
 20
196.0
 10
635.0
 20
196.0
  0
TEXT
  5
EF
330
17
100
AcDbEntity
  8
SIGNAL
100
AcDbText
 10
636.0
 20
183.0
 30
0.0
 40
3.0
  1
XV-103
100
AcDbText
  0
TEXT
  5
F0
330
17
100
AcDbEntity
  8
ANNOT
100
AcDbText
 10
673.0
 20
183.0
 30
0.0
 40
3.0
  1
RINSE VALVE
100
AcDbText
  0
LWPOLYLINE
  5
F1
330
17
100
AcDbEntity
  8
SIGNAL
100
AcDbPolyline
 90
4
 70
1
 10
635.0
 20
160.0
 10
670.0
 20
160.0
 10
670.0
 20
176.0
 10
635.0
 20
176.0
  0
TEXT
  5
F2
330
17
100
AcDbEntity
  8
SIGNAL
100
AcDbText
 10
636.0
 20
163.0
 30
0.0
 40
3.0
  1
XV-104
100
AcDbText
  0
TEXT
  5
F3
330
17
100
AcDbEntity
  8
ANNOT
100
AcDbText
 10
673.0
 20
163.0
 30
0.0
 40
3.0
  1
DRAIN VALVE
100
AcDbText
  0
LWPOLYLINE
  5
F4
330
17
100
AcDbEntity
  8
SIGNAL
100
AcDbPolyline
 90
4
 70
1
 10
635.0
 20
140.0
 10
670.0
 20
140.0
 10
670.0
 20
156.0
 10
635.0
 20
156.0
  0
TEXT
  5
F5
330
17
100
AcDbEntity
  8
SIGNAL
100
AcDbText
 10
636.0
 20
143.0
 30
0.0
 40
3.0
  1
FCV-101
100
AcDbText
  0
TEXT
  5
F6
330
17
100
AcDbEntity
  8
ANNOT
100
AcDbText
 10
673.0
 20
143.0
 30
0.0
 40
3.0
  1
STEAM CTRL
100
AcDbText
  0
LINE
  5
F7
330
17
100
AcDbEntity
  8
SIGNAL
  6
DASHED
100
AcDbLine
 10
420.0
 20
240.0
 30
0.0
 11
420.0
 21
148.0
 31
0.0
  0
LINE
  5
F8
330
17
100
AcDbEntity
  8
SIGNAL
  6
DASHED
100
AcDbLine
 10
420.0
 20
148.0
 30
0.0
 11
630.0
 21
148.0
 31
0.0
  0
LINE
  5
F9
330
17
100
AcDbEntity
  8
SIGNAL
  6
DASHED
100
AcDbLine
 10
200.0
 20
550.0
 30
0.0
 11
200.0
 21
575.0
 31
0.0
  0
LINE
  5
FA
330
17
100
AcDbEntity
  8
SIGNAL
  6
DASHED
100
AcDbLine
 10
200.0
 20
575.0
 30
0.0
 11
50.0
 21
575.0
 31
0.0
  0
LINE
  5
FB
330
17
100
AcDbEntity
  8
SIGNAL
  6
DASHED
100
AcDbLine
 10
260.0
 20
550.0
 30
0.0
 11
260.0
 21
570.0
 31
0.0
  0
LINE
  5
FC
330
17
100
AcDbEntity
  8
SIGNAL
  6
DASHED
100
AcDbLine
 10
260.0
 20
570.0
 30
0.0
 11
200.0
 21
570.0
 31
0.0
  0
LINE
  5
FD
330
17
100
AcDbEntity
  8
SIGNAL
  6
DASHED
100
AcDbLine
 10
445.0
 20
220.0
 30
0.0
 11
445.0
 21
145.0
 31
0.0
  0
LINE
  5
FE
330
17
100
AcDbEntity
  8
SIGNAL
  6
DASHED
100
AcDbLine
 10
445.0
 20
145.0
 30
0.0
 11
630.0
 21
145.0
 31
0.0
  0
TEXT
  5
FF
330
17
100
AcDbEntity
  8
SAFETY
100
AcDbText
 10
18.0
 20
570.0
 30
0.0
 40
4.5
  1
SAFETY INTERLOCKS  (IEC 61511)
100
AcDbText
  0
TEXT
  5
100
330
17
100
AcDbEntity
  8
SAFETY
100
AcDbText
 10
18.0
 20
560.0
 30
0.0
 40
3.5
  1
IL-1: TSH-101 — T ≥ 60°C  →  ALL outputs OFF  +  DRAIN OPEN  (20 ms response)
100
AcDbText
  0
TEXT
  5
101
330
17
100
AcDbEntity
  8
SAFETY
100
AcDbText
 10
18.0
 20
551.0
 30
0.0
 40
3.5
  1
IL-2: PSH-101 — P ≥ 6 bar  →  ALL outputs OFF  +  DRAIN OPEN
100
AcDbText
  0
TEXT
  5
102
330
17
100
AcDbEntity
  8
SAFETY
100
AcDbText
 10
18.0
 20
542.0
 30
0.0
 40
3.5
  1
IL-3: Pump run-FB lost > 3 s  →  Chemical valves CLOSED  +  ALARM
100
AcDbText
  0
TEXT
  5
103
330
17
100
AcDbEntity
  8
SAFETY
100
AcDbText
 10
18.0
 20
533.0
 30
0.0
 40
3.0
  1
Manual key-switch + fault clearance required to reset any interlock latch
100
AcDbText
  0
TEXT
  5
104
330
17
100
AcDbEntity
  8
ANNOT
100
AcDbText
 10
18.0
 20
340.0
 30
0.0
 40
4.5
  1
LEGEND
100
AcDbText
  0
LINE
  5
105
330
17
100
AcDbEntity
  8
PROCESS
100
AcDbLine
 10
18.0
 20
330.0
 30
0.0
 11
55.0
 21
330.0
 31
0.0
  0
TEXT
  5
106
330
17
100
AcDbEntity
  8
ANNOT
100
AcDbText
 10
58.0
 20
327.0
 30
0.0
 40
3.0
  1
Main Process Line
100
AcDbText
  0
LINE
  5
107
330
17
100
AcDbEntity
  8
SIGNAL
  6
DASHED
100
AcDbLine
 10
18.0
 20
316.0
 30
0.0
 11
55.0
 21
316.0
 31
0.0
  0
TEXT
  5
108
330
17
100
AcDbEntity
  8
ANNOT
100
AcDbText
 10
58.0
 20
313.0
 30
0.0
 40
3.0
  1
Signal / Control Line (4-20 mA)
100
AcDbText
  0
CIRCLE
  5
109
330
17
100
AcDbEntity
  8
INSTRU
100
AcDbCircle
 10
36.0
 20
296.0
 30
0.0
 40
9.0
  0
LINE
  5
10A
330
17
100
AcDbEntity
  8
INSTRU
100
AcDbLine
 10
27.0
 20
296.0
 30
0.0
 11
45.0
 21
296.0
 31
0.0
  0
TEXT
  5
10B
330
17
100
AcDbEntity
  8
ANNOT
100
AcDbText
 10
58.0
 20
293.0
 30
0.0
 40
3.0
  1
Field Instrument (bubble)
100
AcDbText
  0
LWPOLYLINE
  5
10C
330
17
100
AcDbEntity
  8
SIGNAL
100
AcDbPolyline
 90
4
 70
1
 10
27.0
 20
275.0
 10
45.0
 20
275.0
 10
45.0
 20
291.0
 10
27.0
 20
291.0
  0
LINE
  5
10D
330
17
100
AcDbEntity
  8
SIGNAL
100
AcDbLine
 10
27.0
 20
283.0
 30
0.0
 11
45.0
 21
283.0
 31
0.0
  0
TEXT
  5
10E
330
17
100
AcDbEntity
  8
ANNOT
100
AcDbText
 10
58.0
 20
280.0
 30
0.0
 40
3.0
  1
PLC Instrument (square)
100
AcDbText
  0
TEXT
  5
10F
330
17
100
AcDbEntity
  8
ANNOT
100
AcDbText
 10
18.0
 20
130.0
 30
0.0
 40
4.0
  1
PROCESS DESIGN BASIS
100
AcDbText
  0
LWPOLYLINE
  5
110
330
17
100
AcDbEntity
  8
ANNOT
100
AcDbPolyline
 90
4
 70
1
 10
18.0
 20
111.0
 10
158.0
 20
111.0
 10
158.0
 20
124.0
 10
18.0
 20
124.0
  0
TEXT
  5
111
330
17
100
AcDbEntity
  8
ANNOT
100
AcDbText
 10
20.0
 20
113.0
 30
0.0
 40
3.0
  1
Phase
100
AcDbText
  0
LWPOLYLINE
  5
112
330
17
100
AcDbEntity
  8
ANNOT
100
AcDbPolyline
 90
4
 70
1
 10
158.0
 20
111.0
 10
202.0
 20
111.0
 10
202.0
 20
124.0
 10
158.0
 20
124.0
  0
TEXT
  5
113
330
17
100
AcDbEntity
  8
ANNOT
100
AcDbText
 10
160.0
 20
113.0
 30
0.0
 40
3.0
  1
Duration
100
AcDbText
  0
LWPOLYLINE
  5
114
330
17
100
AcDbEntity
  8
ANNOT
100
AcDbPolyline
 90
4
 70
1
 10
202.0
 20
111.0
 10
242.0
 20
111.0
 10
242.0
 20
124.0
 10
202.0
 20
124.0
  0
TEXT
  5
115
330
17
100
AcDbEntity
  8
ANNOT
100
AcDbText
 10
204.0
 20
113.0
 30
0.0
 40
3.0
  1
T-SP
100
AcDbText
  0
LWPOLYLINE
  5
116
330
17
100
AcDbEntity
  8
ANNOT
100
AcDbPolyline
 90
4
 70
1
 10
242.0
 20
111.0
 10
372.0
 20
111.0
 10
372.0
 20
124.0
 10
242.0
 20
124.0
  0
TEXT
  5
117
330
17
100
AcDbEntity
  8
ANNOT
100
AcDbText
 10
244.0
 20
113.0
 30
0.0
 40
3.0
  1
Chemical / Condition
100
AcDbText
  0
LWPOLYLINE
  5
118
330
17
100
AcDbEntity
  8
ANNOT
100
AcDbPolyline
 90
4
 70
1
 10
18.0
 20
97.0
 10
158.0
 20
97.0
 10
158.0
 20
108.0
 10
18.0
 20
108.0
  0
TEXT
  5
119
330
17
100
AcDbEntity
  8
ANNOT
100
AcDbText
 10
20.0
 20
99.0
 30
0.0
 40
2.8
  1
1 — Initial Rinse
100
AcDbText
  0
LWPOLYLINE
  5
11A
330
17
100
AcDbEntity
  8
ANNOT
100
AcDbPolyline
 90
4
 70
1
 10
158.0
 20
97.0
 10
202.0
 20
97.0
 10
202.0
 20
108.0
 10
158.0
 20
108.0
  0
TEXT
  5
11B
330
17
100
AcDbEntity
  8
ANNOT
100
AcDbText
 10
160.0
 20
99.0
 30
0.0
 40
2.8
  1
180 s
100
AcDbText
  0
LWPOLYLINE
  5
11C
330
17
100
AcDbEntity
  8
ANNOT
100
AcDbPolyline
 90
4
 70
1
 10
202.0
 20
97.0
 10
242.0
 20
97.0
 10
242.0
 20
108.0
 10
202.0
 20
108.0
  0
TEXT
  5
11D
330
17
100
AcDbEntity
  8
ANNOT
100
AcDbText
 10
204.0
 20
99.0
 30
0.0
 40
2.8
  1
 —
100
AcDbText
  0
LWPOLYLINE
  5
11E
330
17
100
AcDbEntity
  8
ANNOT
100
AcDbPolyline
 90
4
 70
1
 10
242.0
 20
97.0
 10
372.0
 20
97.0
 10
372.0
 20
108.0
 10
242.0
 20
108.0
  0
TEXT
  5
11F
330
17
100
AcDbEntity
  8
ANNOT
100
AcDbText
 10
244.0
 20
99.0
 30
0.0
 40
2.8
  1
Fresh water + drain open
100
AcDbText
  0
LWPOLYLINE
  5
120
330
17
100
AcDbEntity
  8
ANNOT
100
AcDbPolyline
 90
4
 70
1
 10
18.0
 20
83.0
 10
158.0
 20
83.0
 10
158.0
 20
94.0
 10
18.0
 20
94.0
  0
TEXT
  5
121
330
17
100
AcDbEntity
  8
ANNOT
100
AcDbText
 10
20.0
 20
85.0
 30
0.0
 40
2.8
  1
2 — Alkaline Wash
100
AcDbText
  0
LWPOLYLINE
  5
122
330
17
100
AcDbEntity
  8
ANNOT
100
AcDbPolyline
 90
4
 70
1
 10
158.0
 20
83.0
 10
202.0
 20
83.0
 10
202.0
 20
94.0
 10
158.0
 20
94.0
  0
TEXT
  5
123
330
17
100
AcDbEntity
  8
ANNOT
100
AcDbText
 10
160.0
 20
85.0
 30
0.0
 40
2.8
  1
2520 s
100
AcDbText
  0
LWPOLYLINE
  5
124
330
17
100
AcDbEntity
  8
ANNOT
100
AcDbPolyline
 90
4
 70
1
 10
202.0
 20
83.0
 10
242.0
 20
83.0
 10
242.0
 20
94.0
 10
202.0
 20
94.0
  0
TEXT
  5
125
330
17
100
AcDbEntity
  8
ANNOT
100
AcDbText
 10
204.0
 20
85.0
 30
0.0
 40
2.8
  1
30°C
100
AcDbText
  0
LWPOLYLINE
  5
126
330
17
100
AcDbEntity
  8
ANNOT
100
AcDbPolyline
 90
4
 70
1
 10
242.0
 20
83.0
 10
372.0
 20
83.0
 10
372.0
 20
94.0
 10
242.0
 20
94.0
  0
TEXT
  5
127
330
17
100
AcDbEntity
  8
ANNOT
100
AcDbText
 10
244.0
 20
85.0
 30
0.0
 40
2.8
  1
NaOH 2% m/v    η = 94.71%  (Exp.07)
100
AcDbText
  0
LWPOLYLINE
  5
128
330
17
100
AcDbEntity
  8
ANNOT
100
AcDbPolyline
 90
4
 70
1
 10
18.0
 20
69.0
 10
158.0
 20
69.0
 10
158.0
 20
80.0
 10
18.0
 20
80.0
  0
TEXT
  5
129
330
17
100
AcDbEntity
  8
ANNOT
100
AcDbText
 10
20.0
 20
71.0
 30
0.0
 40
2.8
  1
3 — Safety Rinse
100
AcDbText
  0
LWPOLYLINE
  5
12A
330
17
100
AcDbEntity
  8
ANNOT
100
AcDbPolyline
 90
4
 70
1
 10
158.0
 20
69.0
 10
202.0
 20
69.0
 10
202.0
 20
80.0
 10
158.0
 20
80.0
  0
TEXT
  5
12B
330
17
100
AcDbEntity
  8
ANNOT
100
AcDbText
 10
160.0
 20
71.0
 30
0.0
 40
2.8
  1
180 s
100
AcDbText
  0
LWPOLYLINE
  5
12C
330
17
100
AcDbEntity
  8
ANNOT
100
AcDbPolyline
 90
4
 70
1
 10
202.0
 20
69.0
 10
242.0
 20
69.0
 10
242.0
 20
80.0
 10
202.0
 20
80.0
  0
TEXT
  5
12D
330
17
100
AcDbEntity
  8
ANNOT
100
AcDbText
 10
204.0
 20
71.0
 30
0.0
 40
2.8
  1
 —
100
AcDbText
  0
LWPOLYLINE
  5
12E
330
17
100
AcDbEntity
  8
ANNOT
100
AcDbPolyline
 90
4
 70
1
 10
242.0
 20
69.0
 10
372.0
 20
69.0
 10
372.0
 20
80.0
 10
242.0
 20
80.0
  0
TEXT
  5
12F
330
17
100
AcDbEntity
  8
ANNOT
100
AcDbText
 10
244.0
 20
71.0
 30
0.0
 40
2.8
  1
Fresh water — MANDATORY (exothermic risk)
100
AcDbText
  0
LWPOLYLINE
  5
130
330
17
100
AcDbEntity
  8
ANNOT
100
AcDbPolyline
 90
4
 70
1
 10
18.0
 20
55.0
 10
158.0
 20
55.0
 10
158.0
 20
66.0
 10
18.0
 20
66.0
  0
TEXT
  5
131
330
17
100
AcDbEntity
  8
ANNOT
100
AcDbText
 10
20.0
 20
57.0
 30
0.0
 40
2.8
  1
4 — Acid Wash
100
AcDbText
  0
LWPOLYLINE
  5
132
330
17
100
AcDbEntity
  8
ANNOT
100
AcDbPolyline
 90
4
 70
1
 10
158.0
 20
55.0
 10
202.0
 20
55.0
 10
202.0
 20
66.0
 10
158.0
 20
66.0
  0
TEXT
  5
133
330
17
100
AcDbEntity
  8
ANNOT
100
AcDbText
 10
160.0
 20
57.0
 30
0.0
 40
2.8
  1
1620 s
100
AcDbText
  0
LWPOLYLINE
  5
134
330
17
100
AcDbEntity
  8
ANNOT
100
AcDbPolyline
 90
4
 70
1
 10
202.0
 20
55.0
 10
242.0
 20
55.0
 10
242.0
 20
66.0
 10
202.0
 20
66.0
  0
TEXT
  5
135
330
17
100
AcDbEntity
  8
ANNOT
100
AcDbText
 10
204.0
 20
57.0
 30
0.0
 40
2.8
  1
40°C
100
AcDbText
  0
LWPOLYLINE
  5
136
330
17
100
AcDbEntity
  8
ANNOT
100
AcDbPolyline
 90
4
 70
1
 10
242.0
 20
55.0
 10
372.0
 20
55.0
 10
372.0
 20
66.0
 10
242.0
 20
66.0
  0
TEXT
  5
137
330
17
100
AcDbEntity
  8
ANNOT
100
AcDbText
 10
244.0
 20
57.0
 30
0.0
 40
2.8
  1
CH3COOH 1% v/v    η = 99.60%  (Exp.21)
100
AcDbText
  0
LWPOLYLINE
  5
138
330
17
100
AcDbEntity
  8
ANNOT
100
AcDbPolyline
 90
4
 70
1
 10
18.0
 20
41.0
 10
158.0
 20
41.0
 10
158.0
 20
52.0
 10
18.0
 20
52.0
  0
TEXT
  5
139
330
17
100
AcDbEntity
  8
ANNOT
100
AcDbText
 10
20.0
 20
43.0
 30
0.0
 40
2.8
  1
5 — Final Rinse
100
AcDbText
  0
LWPOLYLINE
  5
13A
330
17
100
AcDbEntity
  8
ANNOT
100
AcDbPolyline
 90
4
 70
1
 10
158.0
 20
41.0
 10
202.0
 20
41.0
 10
202.0
 20
52.0
 10
158.0
 20
52.0
  0
TEXT
  5
13B
330
17
100
AcDbEntity
  8
ANNOT
100
AcDbText
 10
160.0
 20
43.0
 30
0.0
 40
2.8
  1
300 s
100
AcDbText
  0
LWPOLYLINE
  5
13C
330
17
100
AcDbEntity
  8
ANNOT
100
AcDbPolyline
 90
4
 70
1
 10
202.0
 20
41.0
 10
242.0
 20
41.0
 10
242.0
 20
52.0
 10
202.0
 20
52.0
  0
TEXT
  5
13D
330
17
100
AcDbEntity
  8
ANNOT
100
AcDbText
 10
204.0
 20
43.0
 30
0.0
 40
2.8
  1
 —
100
AcDbText
  0
LWPOLYLINE
  5
13E
330
17
100
AcDbEntity
  8
ANNOT
100
AcDbPolyline
 90
4
 70
1
 10
242.0
 20
41.0
 10
372.0
 20
41.0
 10
372.0
 20
52.0
 10
242.0
 20
52.0
  0
TEXT
  5
13F
330
17
100
AcDbEntity
  8
ANNOT
100
AcDbText
 10
244.0
 20
43.0
 30
0.0
 40
2.8
  1
Conductivity gate ≤ 0.5 mS/cm
100
AcDbText
  0
TEXT
  5
140
330
17
100
AcDbEntity
  8
ANNOT
100
AcDbText
 10
370.0
 20
130.0
 30
0.0
 40
4.0
  1
NOTES:
100
AcDbText
  0
TEXT
  5
141
330
17
100
AcDbEntity
  8
ANNOT
100
AcDbText
 10
370.0
 20
118.0
 30
0.0
 40
3.0
  1
1. XV-101, XV-102, XV-103 are FAIL-CLOSED (spring-return, de-energise to close)
100
AcDbText
  0
TEXT
  5
142
330
17
100
AcDbEntity
  8
ANNOT
100
AcDbText
 10
370.0
 20
107.0
 30
0.0
 40
3.0
  1
2. XV-104 (drain) is FAIL-OPEN (de-energise to open — safety relief)
100
AcDbText
  0
TEXT
  5
143
330
17
100
AcDbEntity
  8
ANNOT
100
AcDbText
 10
370.0
 20
96.0
 30
0.0
 40
3.0
  1
3. FCV-101 (steam) is FAIL-CLOSED with 4-20 mA modulating positioner
100
AcDbText
  0
TEXT
  5
144
330
17
100
AcDbEntity
  8
ANNOT
100
AcDbText
 10
370.0
 20
85.0
 30
0.0
 40
3.0
  1
4. Boiler material: C1020 carbon steel — compatible with acetic acid
100
AcDbText
  0
TEXT
  5
145
330
17
100
AcDbEntity
  8
ANNOT
100
AcDbText
 10
370.0
 20
74.0
 30
0.0
 40
3.0
  1
5. Max operating pressure: 2 bar  |  Safety trip PSH-101: 6 bar
100
AcDbText
  0
TEXT
  5
146
330
17
100
AcDbEntity
  8
ANNOT
100
AcDbText
 10
370.0
 20
63.0
 30
0.0
 40
3.0
  1
6. Operating temperatures: 30°C (NaOH) and 40°C (Acid)  |  Trip: 60°C
100
AcDbText
  0
TEXT
  5
147
330
17
100
AcDbEntity
  8
ANNOT
100
AcDbText
 10
370.0
 20
52.0
 30
0.0
 40
3.0
  1
7. All transmitters: 4-20 mA HART   |   PLC scan time: 20 ms cyclic
100
AcDbText
  0
TEXT
  5
148
330
17
100
AcDbEntity
  8
ANNOT
100
AcDbText
 10
370.0
 20
41.0
 30
0.0
 40
3.0
  1
8. Reference: Boumeghiti, Bekkouche & Dr. Boussaha (2021), Skikda Univ.
100
AcDbText
  0
ENDSEC
  0
SECTION
  2
OBJECTS
  0
DICTIONARY
  5
A
330
0
100
AcDbDictionary
281
1
  3
ACAD_COLOR
350
B
  3
ACAD_GROUP
350
C
  3
ACAD_LAYOUT
350
D
  3
ACAD_MATERIAL
350
E
  3
ACAD_MLEADERSTYLE
350
F
  3
ACAD_MLINESTYLE
350
10
  3
ACAD_PLOTSETTINGS
350
11
  3
ACAD_PLOTSTYLENAME
350
12
  3
ACAD_SCALELIST
350
14
  3
ACAD_TABLESTYLE
350
15
  3
ACAD_VISUALSTYLE
350
16
  3
EZDXF_META
350
2D
  0
DICTIONARY
  5
B
330
A
100
AcDbDictionary
281
1
  0
DICTIONARY
  5
C
330
A
100
AcDbDictionary
281
1
  0
DICTIONARY
  5
D
330
A
100
AcDbDictionary
281
1
  3
Model
350
1A
  3
Layout1
350
1E
  0
DICTIONARY
  5
E
330
A
100
AcDbDictionary
281
1
  3
ByBlock
350
1F
  3
ByLayer
350
20
  3
Global
350
21
  0
DICTIONARY
  5
F
330
A
100
AcDbDictionary
281
1
  3
Standard
350
2C
  0
DICTIONARY
  5
10
330
A
100
AcDbDictionary
281
1
  3
Standard
350
22
  0
DICTIONARY
  5
11
330
A
100
AcDbDictionary
281
1
  0
ACDBDICTIONARYWDFLT
  5
12
330
A
100
AcDbDictionary
281
1
  3
Normal
350
13
100
AcDbDictionaryWithDefault
340
13
  0
ACDBPLACEHOLDER
  5
13
330
12
  0
DICTIONARY
  5
14
330
A
100
AcDbDictionary
281
1
  0
DICTIONARY
  5
15
330
A
100
AcDbDictionary
281
1
  0
DICTIONARY
  5
16
330
A
100
AcDbDictionary
281
1
  0
LAYOUT
  5
1A
330
D
100
AcDbPlotSettings
  1

  4
A3
  6

 40
7.5
 41
20.0
 42
7.5
 43
20.0
 44
420.0
 45
297.0
 46
0.0
 47
0.0
 48
0.0
 49
0.0
140
0.0
141
0.0
142
1.0
143
1.0
 70
1024
 72
1
 73
0
 74
5
  7

 75
16
 76
0
 77
2
 78
300
147
1.0
148
0.0
149
0.0
100
AcDbLayout
  1
Model
 70
1
 71
0
 10
0.0
 20
0.0
 11
420.0
 21
297.0
 12
0.0
 22
0.0
 32
0.0
 14
1e+20
 24
1e+20
 34
1e+20
 15
-1e+20
 25
-1e+20
 35
-1e+20
146
0.0
 13
0.0
 23
0.0
 33
0.0
 16
1.0
 26
0.0
 36
0.0
 17
0.0
 27
1.0
 37
0.0
 76
1
330
17
  0
LAYOUT
  5
1E
330
D
100
AcDbPlotSettings
  1

  4
A3
  6

 40
7.5
 41
20.0
 42
7.5
 43
20.0
 44
420.0
 45
297.0
 46
0.0
 47
0.0
 48
0.0
 49
0.0
140
0.0
141
0.0
142
1.0
143
1.0
 70
0
 72
1
 73
0
 74
5
  7

 75
16
 76
0
 77
2
 78
300
147
1.0
148
0.0
149
0.0
100
AcDbLayout
  1
Layout1
 70
1
 71
1
 10
0.0
 20
0.0
 11
420.0
 21
297.0
 12
0.0
 22
0.0
 32
0.0
 14
1e+20
 24
1e+20
 34
1e+20
 15
-1e+20
 25
-1e+20
 35
-1e+20
146
0.0
 13
0.0
 23
0.0
 33
0.0
 16
1.0
 26
0.0
 36
0.0
 17
0.0
 27
1.0
 37
0.0
 76
1
330
1B
  0
MATERIAL
  5
1F
102
{ACAD_REACTORS
330
E
102
}
330
E
100
AcDbMaterial
  1
ByBlock
  2

 70
0
 40
1.0
 71
1
 41
1.0
 91
-1023410177
 42
1.0
 72
1
  3

 73
1
 74
1
 75
1
 44
0.5
 73
0
 45
1.0
 46
1.0
 77
1
  4

 78
1
 79
1
170
1
 48
1.0
171
1
  6

172
1
173
1
174
1
140
1.0
141
1.0
175
1
  7

176
1
177
1
178
1
143
1.0
179
1
  8

270
1
271
1
272
1
145
1.0
146
1.0
273
1
  9

274
1
275
1
276
1
 42
1.0
 72
1
  3

 73
1
 74
1
 75
1
 94
63
  0
MATERIAL
  5
20
102
{ACAD_REACTORS
330
E
102
}
330
E
100
AcDbMaterial
  1
ByLayer
  2

 70
0
 40
1.0
 71
1
 41
1.0
 91
-1023410177
 42
1.0
 72
1
  3

 73
1
 74
1
 75
1
 44
0.5
 73
0
 45
1.0
 46
1.0
 77
1
  4

 78
1
 79
1
170
1
 48
1.0
171
1
  6

172
1
173
1
174
1
140
1.0
141
1.0
175
1
  7

176
1
177
1
178
1
143
1.0
179
1
  8

270
1
271
1
272
1
145
1.0
146
1.0
273
1
  9

274
1
275
1
276
1
 42
1.0
 72
1
  3

 73
1
 74
1
 75
1
 94
63
  0
MATERIAL
  5
21
102
{ACAD_REACTORS
330
E
102
}
330
E
100
AcDbMaterial
  1
Global
  2

 70
0
 40
1.0
 71
1
 41
1.0
 91
-1023410177
 42
1.0
 72
1
  3

 73
1
 74
1
 75
1
 44
0.5
 73
0
 45
1.0
 46
1.0
 77
1
  4

 78
1
 79
1
170
1
 48
1.0
171
1
  6

172
1
173
1
174
1
140
1.0
141
1.0
175
1
  7

176
1
177
1
178
1
143
1.0
179
1
  8

270
1
271
1
272
1
145
1.0
146
1.0
273
1
  9

274
1
275
1
276
1
 42
1.0
 72
1
  3

 73
1
 74
1
 75
1
 94
63
  0
MLINESTYLE
  5
22
102
{ACAD_REACTORS
330
10
102
}
330
10
100
AcDbMlineStyle
  2
Standard
 70
0
  3

 62
256
 51
90.0
 52
90.0
 71
2
 49
0.5
 62
256
  6
BYLAYER
 49
-0.5
 62
256
  6
BYLAYER
  0
MLEADERSTYLE
  5
2C
102
{ACAD_REACTORS
330
F
102
}
330
F
100
AcDbMLeaderStyle
179
2
170
2
171
1
172
0
 90
2
 40
0.0
 41
0.0
173
1
 91
-1056964608
 92
-2
290
1
 42
2.0
291
1
 43
8.0
  3
Standard
 44
4.0
300

342
29
174
1
175
1
176
0
178
1
 93
-1056964608
 45
4.0
292
0
297
0
 46
4.0
 94
-1056964608
 47
1.0
 49
1.0
140
1.0
294
1
141
0.0
177
0
142
1.0
295
0
296
0
143
3.75
271
0
272
9
273
9
  0
DICTIONARY
  5
2D
330
A
100
AcDbDictionary
280
1
281
1
  3
CREATED_BY_EZDXF
350
2E
  3
WRITTEN_BY_EZDXF
350
14B
  0
DICTIONARYVAR
  5
2E
330
2D
100
DictionaryVariables
280
0
  1
1.4.4 @ 2026-09-19T10:10:48.177754+00:00
  0
DICTIONARYVAR
  5
14B
330
2D
100
DictionaryVariables
280
0
  1
1.4.4 @ 2026-09-19T10:10:48.193238+00:00
  0
ENDSEC
  0
EOF
